<svg class="logo-svg" xmlns="http://www.w3.org/2000/svg" fill="#fff" viewBox="0 0 108 40">
  <path fill-rule="evenodd" d="M44.88 10.183V8.934c.001-.299.01-.598-.001-.897-.046-1.25-.785-2.028-1.992-2.086a11.861 11.861 0 0 0-1.488.005c-1.016.078-1.777.864-1.831 1.913-.042.796-.018 1.596-.018 2.395 0 3.882.023 7.765-.012 11.648-.008.937.31 1.672 1.038 2.126.632.393 1.429.41 2.15.315 1.552-.205 2.126-.94 2.154-2.559.002-.114.002-1.366.002-1.98a.35.35 0 0 1 .343-.325h3.186c.173 0 .318.133.341.304.003.562.005 1.705.007 1.754.152 4.074-3.188 6.833-7.101 6.6-1.19-.07-2.357-.451-3.49-1.216-1.462-.986-2.166-2.451-2.192-4.128-.081-5.073-.062-10.149-.015-15.223.023-2.453 1.497-4.29 3.726-5.129a7.301 7.301 0 0 1 3.867-.345 6.762 6.762 0 0 1 1.69.511c2.625 1.22 3.421 3.76 3.447 6.376v1.186a.35.35 0 0 1-.345.353h-3.12a.35.35 0 0 1-.346-.35ZM29.34 27.937c-1.51.349-2.992.28-4.494-.154-1.79-.517-3.579-2.527-3.807-4.381-.098-.8-.222-1.592-.186-2.4l.003-1.198V19.8a.35.35 0 0 1 .344-.326h.265v-.003h2.587v.003h.26a.35.35 0 0 1 .345.344v1.25c0 .38-.012.76.005 1.139.059 1.273.848 2.038 2.102 2.057.318.005.637.003.955-.003 1.322-.029 1.891-.436 2.146-1.766a9.702 9.702 0 0 0 .001-3.665c-.265-1.372-.952-1.796-2.34-1.846-1.152-.04-2.317-.072-3.404-.615-2.343-1.17-3.293-3.736-3.273-6.3.01-1.376-.012-2.743.403-4.086.505-1.638 1.562-2.777 3.064-3.382 1.972-.794 4.011-.854 5.997.041 1.819.821 2.88 2.318 3.25 4.264.1.521.098 1.063.08 1.607l-.004 1.708a.349.349 0 0 1-.342.312H30.32a.349.349 0 0 1-.344-.332l.003-1.646c.052-1.187-.567-2.542-1.858-2.596a20.464 20.464 0 0 0-1.595-.007c-1.09.04-1.842.806-1.867 1.928a67.462 67.462 0 0 0 .004 3.155c.033 1.31.8 2.073 2.069 2.115.74.025 1.471-.005 2.215.163 2.684.607 4.407 2.684 4.688 5.537.256 2.6.2 4.8-1.228 6.95-.75 1.13-1.818 1.764-3.066 2.136ZM4.199 15.176c0-3.039-.006-6.078.001-9.117.005-1.668.165-1.816 1.82-1.813.816 0 1.624-.049 2.261.648.28.307.476.603.487 1.013.01.353.025.707.025 1.06.002 5.37.002 10.742 0 16.112 0 .389.001.78-.036 1.165-.08.812-.742 1.552-1.555 1.625-.737.067-1.485.026-2.227 0-.513-.017-.751-.34-.766-.835-.01-.282-.01-.565-.01-.848v-9.01ZM.002 15.07V2.022c0-.248-.009-.496.008-.743C.072.387.357.075 1.267.063 2.414.048 3.565.003 4.713 0h.186c.775 0 1.549.023 2.319.086 2.875.238 5.401 2.221 5.577 5.365a94.15 94.15 0 0 1 .133 4.867c.013 3.925-.016 7.85.015 11.775.008 1.066-.089 2.119-.218 3.166-.304 2.454-2.814 4.613-5.133 4.754-1.84.112-3.676.128-5.515.135-1.923.006-2.072-.157-2.072-2.03V15.07H.002Zm80.62.005V3.96c0-.255-.015-.51.007-.763.078-.872.356-1.17 1.199-1.172 2.92-.01 8.067-.004 11.147-.006a.35.35 0 0 1 .334.353v3.203a.35.35 0 0 1-.302.35l-.13.002H88.78l-1.817-.002v.002h-2.44a.315.315 0 0 0-.31.318v6.578c0 .175.139.318.31.318h2.44v.002l.542.001a.35.35 0 0 1 .325.353v3.089a.351.351 0 0 1-.309.351l-.218.002h-2.775a.32.32 0 0 0-.316.323v6.684a.32.32 0 0 0 .316.324h4.281l3.867.012.09.001.235.002a.35.35 0 0 1 .308.351v3.206a.353.353 0 0 1-.282.347c-2.875-.054-7.849-.005-10.58-.008-.318 0-.641.01-.953-.04-.467-.078-.763-.392-.839-.866-.052-.32-.035-.652-.035-.979-.002-3.74-.001-7.482-.001-11.223h.003Zm26.854 15.032c-.608 0-1.215.009-1.821 0-1.072-.017-1.528-.462-1.693-1.734-.122-.931-.158-1.878-.279-2.809-.214-1.649-.723-3.172-1.604-4.511-.257-.392-.53-.778-.91-1.03-1.003-.664-2.088-.06-2.228 1.253-.039.365-.017.739-.017 1.108-.002 2.013.009 4.026-.006 6.039-.009 1.35-.291 1.701-1.46 1.67-.962-.027-2.337.467-2.356-1.068-.018-1.362-.042-2.724-.044-4.087-.004-7.615 0-15.23 0-22.846 0-1.666-.067-2.02 1.495-2.075 2.041-.072 4.075.116 6.111.202 2.777.117 5.204 2.766 5.297 6 .075 2.59.025 5.186-.005 7.78-.015 1.442-.728 2.561-1.484 3.605-.791 1.094-.855 1.166-.315 2.374 1.329 2.964 1.935 6.102 1.808 9.423-.01.282-.217.64-.489.706ZM99.107 6.64c.028-1.292.382-1.7 1.487-1.748a12.21 12.21 0 0 1 1.61.018c.795.07 1.449.714 1.53 1.618.194 2.174.202 4.361.035 6.536-.096 1.25-.681 1.818-1.756 1.924a9.059 9.059 0 0 1-1.503.031c-1.05-.072-1.391-.49-1.408-1.706a185.55 185.55 0 0 1 .005-6.673ZM71.438 28.346c-.858.05-1.345-.402-1.629-1.13-1.136-2.92-2.179-5.887-2.771-8.963-.452-2.346-1.603-10.788-1.516-14.208l.001-1.133h.002v-.384c0-.193.155-.35.345-.35h3.296c.17 0 .312.126.34.29l.005 1.657c.06 1.19.099 2.54.133 3.204.105 1.999.186 4.252.399 5.785.488 3.52.772 4.729 1.977 8.015 1.205-3.286 1.49-4.496 1.978-8.016.224-1.612.301-4.019.415-6.09.032-.587.069-1.783.121-2.869v-.267h.02a.348.348 0 0 1-.018-.111V2.5a.348.348 0 0 1 .344-.323h3.297c.17 0 .313.128.34.293l.004 1.707c.055 3.5-1.072 11.759-1.519 14.075-.592 3.076-1.634 6.044-2.771 8.963-.284.728-.77 1.18-1.629 1.13a10.005 10.005 0 0 0-1.164 0ZM15.312 2.1h3.069c.154 0 .281.155.281.344v25.482c0 .19-.127.344-.281.344h-3.07c-.154 0-.28-.155-.28-.344V2.444c0-.19.126-.344.28-.344Zm48.182 13.197c-.02 1.258-.337 2.46-.98 3.519-1.136 1.866-2.868 2.745-4.985 2.846-1.104.053-2.159-.068-3.23-.505-2.188-.893-3.248-2.533-3.61-4.825-.288-1.826-.356-7.064-.011-8.904.238-1.274.623-2.452 1.434-3.46.967-1.202 2.329-1.675 3.737-1.903a7.338 7.338 0 0 1 4.478.683c1.632.814 2.538 2.273 2.96 4.057.403 1.707.238 6.578.207 8.492Zm-3.724-3.414c.002 1.394.022 2.789-.006 4.183-.019.917-.537 1.403-1.641 1.649-2.134.474-3.803-.416-3.854-2.18-.076-2.606-.057-5.216-.004-7.824.025-1.198.839-1.756 2.428-1.802.962-.028 1.93-.125 2.617.679.351.412.464.794.462 1.248-.006 1.349-.002 2.698-.002 4.047Zm3.83 12.442v3.494c0 .176-.156.32-.346.32H50.972c-.19 0-.345-.144-.345-.32v-3.494c0-.177.155-.321.345-.321h12.282c.19 0 .345.144.345.32ZM15.298 39.894h1.17V36.71h.404c.531 0 .733.223.733.913v1.358c0 .604.043.721.107.912h1.19c-.116-.276-.127-.541-.127-.902v-1.305c0-.838-.191-1.39-.776-1.57v-.02c.52-.213.765-.701.765-1.465v-.456c0-1.146-.52-1.708-1.733-1.708h-1.733v7.426Zm1.17-4.244v-2.12h.531c.415 0 .596.233.596.764v.572c0 .594-.266.785-.702.785h-.426Zm11.869 4.244h3.19v-1.06h-2.02v-2.282h1.605v-1.06h-1.605v-1.963h2.02v-1.061h-3.19v7.426ZM42.493 40c1.148 0 1.765-.679 1.765-1.888 0-.923-.308-1.517-1.287-2.377-.765-.668-1.01-1.06-1.01-1.602 0-.509.213-.71.585-.71s.585.201.585.732v.382h1.106v-.308c0-1.188-.564-1.867-1.702-1.867-1.137 0-1.744.679-1.744 1.846 0 .848.32 1.453 1.298 2.312.766.669 1 1.061 1 1.677 0 .551-.234.742-.607.742-.372 0-.606-.19-.606-.721v-.51H40.77v.425c0 1.188.574 1.867 1.723 1.867Zm12.88 0c1.148 0 1.776-.679 1.776-1.867v-3.904c0-1.188-.628-1.867-1.776-1.867-1.149 0-1.776.679-1.776 1.867v3.904c0 1.188.627 1.867 1.776 1.867Zm0-1.06c-.372 0-.606-.202-.606-.733v-4.052c0-.53.234-.732.606-.732s.606.201.606.732v4.052c0 .53-.234.732-.606.732Zm11.316.954h1.17V36.71h.404c.532 0 .734.223.734.913v1.358c0 .604.043.721.106.912h1.191c-.117-.276-.127-.541-.127-.902v-1.305c0-.838-.192-1.39-.776-1.57v-.02c.52-.213.765-.701.765-1.465v-.456c0-1.146-.52-1.708-1.733-1.708h-1.734v7.426Zm1.17-4.244v-2.12h.532c.415 0 .595.233.595.764v.572c0 .594-.266.785-.702.785h-.425Zm12.763 4.244h1.17v-6.365h1.223v-1.061h-3.616v1.06h1.223v6.366Zm13.23.106c1.15 0 1.766-.679 1.766-1.888 0-.923-.308-1.517-1.287-2.377-.765-.668-1.01-1.06-1.01-1.602 0-.509.213-.71.585-.71s.585.201.585.732v.382h1.106v-.308c0-1.188-.564-1.867-1.702-1.867-1.137 0-1.744.679-1.744 1.846 0 .848.32 1.453 1.298 2.312.766.669 1 1.061 1 1.677 0 .551-.234.742-.607.742-.372 0-.606-.19-.606-.721v-.51H92.13v.425c0 1.188.575 1.867 1.723 1.867Z" clip-rule="evenodd"></path>
</svg>